# xmcd
#
# Track frame offsets: 
#        150
#        19431
#        34014
#        55799
#        70115
#        83843
#        98045
#        113247
#        128051
#        143689
#        159486
#        174705
#        191120
#        205389
#        221622
#        239067
#
# Disc length: 3470 seconds
#
# Revision: 2
# Processed by: cddbd v1.5.2PL0 Copyright (c) Steve Scherf et al.
# Submitted via: ExactAudioCopy v0.99pb3
#
DISCID=e80d8c10
DTITLE=Frank Muschalle - Live
DYEAR=2000
DGENRE=Boogie
TTITLE0=Flo-Town Boogie
TTITLE1=Crack's Shuffle
TTITLE2=Blue Without You
TTITLE3=Mama You Don't Mean Me No Good
TTITLE4=The Hubbub
TTITLE5=Mellow Ride
TTITLE6=Mutiny In The Fish House
TTITLE7=Bad Excuse Blues
TTITLE8=Ants On My Hands
TTITLE9=Shuffle Walk
TTITLE10=Pinetop's Boogie Woogie
TTITLE11=T.W. Blues
TTITLE12=Neigbourhood Bounce
TTITLE13=Big Old Turtle
TTITLE14=Slotcar Boogie
TTITLE15=Whistlin' Ourselves The Blues
EXTD=
EXTT0=
EXTT1=
EXTT2=
EXTT3=
EXTT4=
EXTT5=
EXTT6=
EXTT7=
EXTT8=
EXTT9=
EXTT10=
EXTT11=
EXTT12=
EXTT13=
EXTT14=
EXTT15=
PLAYORDER=
